<svg height="73" viewBox="0 0 73 73" width="73" xmlns="http://www.w3.org/2000/svg"><g fill="none" fill-rule="nonzero"><rect fill="#fff" height="71" rx="14" stroke="#31237b" stroke-width="2" width="71" x="1" y="1"/><g transform="translate(19 14)"><path d="m33.6577973 44.8009947h-32.1398136c-.8065054 0-1.46093243-.654427-1.46093243-1.4609324v-41.87912986c0-.80650541.65442703-1.46093244 1.46093243-1.46093244h20.4526166c.3871086 0 .7589919.15409092 1.0328729.4280595l11.687197 11.687197c.2739686.2738811.4280595.6456768.4280595 1.0328729v30.1919329c0 .8065054-.654427 1.4609324-1.4609324 1.4609324z" fill="#7a51cc"/><path d="m23.0034732.4280595c-.273881-.27396858-.6457643-.4280595-1.0328729-.4280595h-4.3827098v44.8009947h16.0699068c.8065054 0 1.4609324-.654427 1.4609324-1.4609324v-30.1919329c0-.3871086-.1540909-.7589918-.4280595-1.0328729z" fill="#5947b3"/><path d="m34.6909327 12.1154315-11.6874595-11.687372c-.2739685-.27405608-.6457643-.4280595-1.0333104-.4280595h-1.4604949l.0000875 13.1481294c0 .8067679.654077 1.4609325 1.4609324 1.4609325h13.1480419v-1.4609325c0-.3873711-.1539159-.7588168-.427797-1.0326979z" fill="#7a51cc"/><g fill="#fff" transform="translate(5.86263 21.350474)"><circle cx="1.498908" cy="1.536972" r="1.460932"/><circle cx="1.498908" cy="7.380614" r="1.460932"/><circle cx="1.498908" cy="13.224169" r="1.460932"/><path d="m21.9516124 14.6851011h-14.60906187c-.80650541 0-1.46093244-.6544271-1.46093244-1.4609325s.65442703-1.4609324 1.46093244-1.4609324h14.60906187c.8065054 0 1.4609324.654427 1.4609324 1.4609324-.0000875.8065929-.654427 1.4609325-1.4609324 1.4609325z"/></g><path d="m27.8142426 33.1137977h-10.2263521v2.9217774h10.2263521c.8065054 0 1.4609324-.654427 1.4609324-1.4609324-.0000875-.8065055-.654427-1.460845-1.4609324-1.460845z" fill="#e6f3ff"/><path d="m27.8142426 30.1919328h-14.6090619c-.8065054 0-1.4609324-.654427-1.4609324-1.4609324s.654427-1.4609324 1.4609324-1.4609324h14.6090619c.8065054 0 1.4609324.654427 1.4609324 1.4609324-.0000875.8065929-.654427 1.4609324-1.4609324 1.4609324z" fill="#fff"/><path d="m27.8142426 27.2701555h-10.2263521v2.9217773h10.2263521c.8065054 0 1.4609324-.654427 1.4609324-1.4609324-.0000875-.8064179-.654427-1.4608449-1.4609324-1.4608449z" fill="#e6f3ff"/><path d="m27.8142426 24.3483781h-14.6090619c-.8065054 0-1.4609324-.654427-1.4609324-1.4609324s.654427-1.4609325 1.4609324-1.4609325h14.6090619c.8065054 0 1.4609324.6544271 1.4609324 1.4609325-.0000875.8065054-.654427 1.4609324-1.4609324 1.4609324z" fill="#fff"/><path d="m27.8142426 21.4266007h-10.2263521v2.9217774h10.2263521c.8065054 0 1.4609324-.654427 1.4609324-1.4609324-.0000875-.8065054-.654427-1.460845-1.4609324-1.460845z" fill="#e6f3ff"/></g></g></svg>